<?xml version="1.0" encoding="utf-8"?>
<!-- Generator: Adobe Illustrator 27.6.1, SVG Export Plug-In . SVG Version: 6.00 Build 0)  -->
<svg version="1.1" id="Layer_1" xmlns:serif="http://www.serif.com/"
	 xmlns="http://www.w3.org/2000/svg" xmlns:xlink="http://www.w3.org/1999/xlink" x="0px" y="0px" viewBox="0 0 800 800"
	 enable-background="new 0 0 800 800" xml:space="preserve">
<rect id="Icons" y="-2400" fill="none" width="16000" height="10000"/>
<g id="Icons1" serif:id="Icons">
	<g id="Strike">
	</g>
	<g id="H1">
	</g>
	<g id="H2">
	</g>
	<g id="H3">
	</g>
	<g id="list-ul">
	</g>
	<g id="hamburger-1">
	</g>
	<g id="hamburger-2">
	</g>
	<g id="list-ol">
	</g>
	<g id="list-task">
	</g>
	<g id="trash">
	</g>
	<g id="vertical-menu">
	</g>
	<g id="horizontal-menu">
	</g>
	<g id="sidebar-2">
	</g>
	<g id="Pen">
	</g>
	<g id="Pen1" serif:id="Pen">
	</g>
	<g id="clock">
	</g>
	<g id="external-link">
	</g>
	<g id="hr">
	</g>
	<g id="info">
	</g>
	<g id="warning">
	</g>
	<g id="plus-circle">
	</g>
	<g id="minus-circle">
	</g>
	<g id="vue">
	</g>
	<g id="cog">
	</g>
	<path id="github" fill-rule="evenodd" clip-rule="evenodd" fill="#FFFFFF" d="M400.362,104.312
		C234.487,104.312,100,238.8,100,404.725c0,132.713,86.062,245.3,205.438,285.037c15.025,2.75,20.5-6.525,20.5-14.5
		c0-7.112-0.25-26.013-0.4-51.075c-83.562,18.15-101.188-40.275-101.188-40.275c-13.663-34.688-33.363-43.925-33.363-43.925
		c-27.275-18.65,2.062-18.275,2.062-18.275c30.15,2.138,46.012,30.962,46.012,30.962c26.8,45.9,70.312,32.638,87.425,24.963
		c2.738-19.412,10.475-32.65,19.075-40.162c-66.7-7.575-136.837-33.363-136.837-148.463c0-32.787,11.713-59.612,30.925-80.612
		c-3.087-7.6-13.4-38.138,2.938-79.5c0,0,25.225-8.075,82.613,30.8c23.962-6.662,49.663-10,75.2-10.113
		c25.513,0.113,51.213,3.45,75.212,10.113c57.35-38.875,82.525-30.8,82.525-30.8c16.388,41.362,6.075,71.9,2.987,79.5
		c19.25,21,30.888,47.825,30.888,80.612c0,115.4-70.25,140.788-137.175,148.225c10.8,9.275,20.4,27.6,20.4,55.638
		c0,40.15-0.362,72.55-0.362,82.388c0,8.05,5.4,17.4,20.65,14.462c119.275-39.812,205.263-152.325,205.263-285
		C700.787,238.8,566.287,104.313,400.362,104.312"/>
	<g id="logo">
	</g>
	<g id="radio-check">
	</g>
	<g id="eye-slash">
	</g>
	<g id="eye">
	</g>
	<g id="toggle-off">
	</g>
	<g id="shredder">
	</g>
	<g id="spinner--loading--dots-" serif:id="spinner [loading, dots]">
	</g>
	<g id="react">
	</g>
	<g id="check-selected">
	</g>
	<g id="turn-off">
	</g>
	<g id="code-block">
	</g>
	<g id="user">
	</g>
	<g id="coffee-bean">
	</g>
	<g id="coffee-beans">
		<g id="coffee-bean1" serif:id="coffee-bean">
		</g>
	</g>
	<g id="coffee-bean-filled">
	</g>
	<g id="coffee-beans-filled">
		<g id="coffee-bean2" serif:id="coffee-bean">
		</g>
	</g>
	<g id="clipboard">
	</g>
	<g id="clipboard-paste">
	</g>
	<g id="clipboard-copy">
	</g>
	<g id="Layer1">
	</g>
</g>
</svg>
